<?xml version="1.0" standalone="no"?>
<!DOCTYPE svg PUBLIC "-//W3C//DTD SVG 20010904//EN"
 "http://www.w3.org/TR/2001/REC-SVG-20010904/DTD/svg10.dtd">
<svg version="1.0" xmlns="http://www.w3.org/2000/svg"
 width="597.000000pt" height="645.000000pt" viewBox="0 0 597.000000 645.000000"
 preserveAspectRatio="xMidYMid meet">

<g transform="translate(0.000000,645.000000) scale(0.100000,-0.100000)"
fill="#000000" stroke="none">
<path d="M3630 4790 c-186 -29 -432 -172 -626 -365 -109 -107 -144 -162 -144
-222 0 -48 20 -77 73 -106 36 -19 57 -22 147 -22 124 1 173 14 455 117 271
100 301 109 386 115 160 12 231 -51 275 -242 28 -120 26 -402 -4 -541 -57
-262 -175 -524 -365 -809 -119 -178 -270 -341 -371 -400 -58 -34 -174 -65
-245 -65 -116 0 -294 71 -389 157 l-54 48 66 135 c116 239 173 450 183 670 7
161 -7 298 -42 409 -33 103 -74 157 -150 196 -53 27 -67 30 -149 29 -109 -1
-169 -16 -369 -93 -259 -100 -373 -132 -480 -133 -96 -2 -151 15 -164 49 -10
25 27 81 112 171 233 247 582 416 715 347 49 -26 59 -112 21 -184 -17 -30 -6
-39 19 -16 39 35 52 137 26 200 -67 161 -422 55 -763 -228 -75 -61 -168 -168
-197 -224 -24 -47 -20 -96 9 -131 39 -46 96 -65 200 -65 105 0 169 16 395 98
384 140 344 129 466 130 105 0 112 -1 147 -28 50 -38 93 -131 113 -247 22
-127 14 -382 -16 -524 -32 -152 -171 -506 -199 -506 -12 0 -132 152 -198 250
-78 117 -181 332 -172 359 3 6 25 1 58 -14 30 -14 56 -23 59 -20 16 15 -134
135 -169 135 -54 0 -61 -35 -28 -132 60 -175 200 -404 357 -586 53 -61 54 -63
41 -95 -20 -47 -156 -250 -227 -339 -84 -104 -198 -208 -268 -245 -73 -39
-208 -68 -276 -59 -68 9 -196 56 -263 97 -166 100 -376 355 -502 610 -58 115
-74 169 -52 169 8 0 34 -11 58 -25 23 -14 48 -25 54 -25 15 0 -68 84 -113 114
-56 38 -76 41 -95 12 -16 -24 -16 -30 5 -98 50 -165 215 -439 369 -614 142
-161 271 -243 466 -295 89 -24 130 -24 234 1 157 38 280 126 422 302 67 84
186 256 245 354 10 17 16 14 80 -34 86 -65 145 -94 259 -127 75 -22 104 -26
175 -22 161 8 284 69 420 207 204 206 465 635 560 920 87 262 109 514 64 754
-21 110 -48 177 -94 229 -56 64 -123 91 -225 90 -97 -1 -158 -17 -410 -110
-316 -117 -455 -143 -555 -105 -81 31 -62 82 89 232 170 169 388 299 548 327
97 16 124 13 159 -22 31 -31 33 -108 4 -165 -23 -45 -12 -53 19 -14 40 51 50
149 20 206 -27 51 -102 73 -199 58z"/>
</g>
</svg>
